<?xml version="1.0" encoding="utf-8"?>
<!-- Generator: Adobe Illustrator 16.0.0, SVG Export Plug-In . SVG Version: 6.00 Build 0)  -->
<!DOCTYPE svg PUBLIC "-//W3C//DTD SVG 1.1//EN" "http://www.w3.org/Graphics/SVG/1.1/DTD/svg11.dtd">
<svg version="1.1" id="Layer_1" xmlns="http://www.w3.org/2000/svg" xmlns:xlink="http://www.w3.org/1999/xlink" x="0px" y="0px"
	 width="200px" height="175px" viewBox="0 0 180 142" enable-background="new 0 0 180 142" xml:space="preserve">
<g>
	<path fill="#5f5f5f" d="M24.85,90.095c-0.211,0.528-0.416,0.995-0.613,1.404s-0.442,0.759-0.732,1.048
		c-0.291,0.291-0.646,0.508-1.068,0.653c-0.422,0.145-0.937,0.218-1.543,0.218c-0.659,0-1.206-0.094-1.642-0.277
		c-0.435-0.184-0.798-0.428-1.088-0.732c-0.291-0.303-0.528-0.652-0.712-1.048c-0.185-0.396-0.356-0.817-0.515-1.266L9.856,71.621
		c-0.053-0.159-0.145-0.35-0.277-0.574c-0.132-0.224-0.264-0.336-0.396-0.336c-0.211,0-0.336,0.125-0.376,0.375
		c-0.04,0.251-0.059,0.402-0.059,0.455l0.119,21.561H3.646V68.732c0-0.896,0.198-1.588,0.593-2.077
		c0.396-0.488,0.844-0.851,1.345-1.088s0.996-0.376,1.483-0.416s0.837-0.06,1.048-0.06c0.792,0,1.457,0.093,1.998,0.277
		c0.54,0.185,0.989,0.442,1.345,0.771c0.356,0.33,0.653,0.712,0.89,1.147s0.448,0.89,0.633,1.365l7.16,18.474
		c0.132,0.291,0.257,0.535,0.376,0.732s0.244,0.297,0.376,0.297c0.131,0,0.257-0.1,0.375-0.297s0.244-0.441,0.376-0.732l7.16-18.474
		c0.29-0.791,0.613-1.417,0.969-1.879s0.745-0.817,1.167-1.068c0.421-0.25,0.856-0.415,1.305-0.495
		c0.448-0.079,0.923-0.119,1.424-0.119c1.292,0,2.36,0.291,3.204,0.871c0.844,0.58,1.266,1.503,1.266,2.769v24.368h-5.222
		l0.158-21.56c0-0.369-0.059-0.6-0.178-0.692c-0.119-0.092-0.217-0.139-0.296-0.139c-0.132,0-0.264,0.113-0.396,0.336
		c-0.132,0.224-0.225,0.416-0.277,0.574L24.85,90.095z"/>
	<path fill="#5f5f5f" d="M49.455,93.102c-0.528,0-1.082-0.02-1.662-0.061c-0.581-0.039-1.147-0.15-1.701-0.336
		c-0.554-0.184-1.095-0.455-1.622-0.811c-0.528-0.355-1.002-0.837-1.424-1.443c-0.686-1.002-1.107-2.176-1.266-3.521
		s-0.237-2.716-0.237-4.114c0-0.976,0.02-1.892,0.059-2.749s0.145-1.648,0.316-2.373c0.171-0.726,0.421-1.392,0.752-1.998
		c0.329-0.606,0.784-1.16,1.365-1.662c0.58-0.5,1.22-0.883,1.918-1.146c0.698-0.264,1.404-0.455,2.117-0.574
		c0.712-0.119,1.397-0.191,2.057-0.217c0.659-0.026,1.239-0.04,1.741-0.04c1.239,0,2.459,0.073,3.659,0.218
		c1.2,0.145,2.288,0.521,3.264,1.127c0.606,0.396,1.101,0.845,1.483,1.346s0.686,1.048,0.91,1.641
		c0.224,0.594,0.375,1.214,0.455,1.859c0.079,0.646,0.119,1.3,0.119,1.959c0,0.527-0.053,1.074-0.158,1.641
		c-0.105,0.568-0.383,1.076-0.831,1.523c-0.316,0.316-0.667,0.527-1.048,0.633c-0.383,0.105-0.785,0.158-1.207,0.158H46.329
		c0,0.449,0.026,0.963,0.079,1.543c0.053,0.58,0.119,1.029,0.198,1.346c0.158,0.553,0.382,0.995,0.672,1.324
		c0.29,0.33,0.633,0.581,1.029,0.752c0.396,0.172,0.811,0.283,1.246,0.336c0.435,0.054,0.863,0.08,1.286,0.08h10.246v3.561H49.455
		L49.455,93.102z M55.942,80.601c0.448,0,0.732-0.132,0.851-0.396c0.119-0.264,0.178-0.541,0.178-0.831
		c0-0.659-0.139-1.226-0.416-1.701c-0.277-0.475-0.587-0.844-0.93-1.107c-0.58-0.448-1.22-0.718-1.918-0.812
		c-0.699-0.092-1.378-0.138-2.037-0.138c-0.316,0-0.66,0.007-1.028,0.02c-0.37,0.014-0.752,0.06-1.147,0.139
		s-0.785,0.218-1.167,0.415c-0.383,0.197-0.732,0.469-1.048,0.811c-0.475,0.528-0.746,1.089-0.811,1.682
		c-0.066,0.594-0.113,1.233-0.138,1.919H55.942z"/>
	<path fill="#5f5f5f" d="M73.388,93.102c-1.424,0-2.552-0.125-3.382-0.377c-0.831-0.25-1.576-0.639-2.235-1.166
		c-0.686-0.555-1.207-1.239-1.563-2.057c-0.356-0.818-0.534-1.899-0.534-3.244V75.695h-2.888v-3.561h2.888V65.41h4.628v6.725h5.854
		v3.561h-5.854v8.426c0,0.369,0,0.766,0,1.188c0,0.395,0.033,0.791,0.099,1.187s0.184,0.785,0.356,1.167
		c0.171,0.383,0.429,0.705,0.771,0.969c0.527,0.449,1.153,0.713,1.879,0.791c0.725,0.08,1.298,0.119,1.721,0.119h1.147v3.561H73.388
		L73.388,93.102z"/>
	<path fill="#5f5f5f" d="M77.857,80.047c0-1.16,0.139-2.275,0.416-3.344c0.277-1.067,0.863-1.983,1.76-2.748
		c0.475-0.422,0.995-0.758,1.563-1.01c0.567-0.25,1.134-0.435,1.701-0.553c0.567-0.119,1.114-0.191,1.642-0.219
		c0.527-0.025,0.989-0.039,1.385-0.039h3.125v3.561H87.51c-0.607,0-1.279,0.079-2.018,0.237s-1.384,0.567-1.938,1.227
		c-0.449,0.528-0.738,1.147-0.87,1.858c-0.132,0.713-0.198,1.465-0.198,2.256v11.828h-4.628V80.047z"/>
	<path fill="#5f5f5f" d="M102.898,71.938c0.738,0.026,1.49,0.112,2.255,0.257c0.765,0.146,1.503,0.37,2.216,0.673
		c0.711,0.303,1.357,0.719,1.938,1.246c0.606,0.554,1.088,1.206,1.444,1.958c0.356,0.751,0.626,1.51,0.812,2.274
		c0.184,0.766,0.303,1.517,0.355,2.255c0.053,0.739,0.079,1.385,0.079,1.938c0,2.242-0.257,4.042-0.771,5.4
		c-0.515,1.357-1.154,2.406-1.919,3.145c-0.554,0.527-1.193,0.943-1.918,1.246c-0.726,0.304-1.478,0.527-2.255,0.672
		c-0.778,0.145-1.536,0.238-2.274,0.277c-0.739,0.039-1.412,0.06-2.018,0.06c-0.633,0-1.319-0.021-2.058-0.06
		s-1.489-0.133-2.255-0.277s-1.503-0.369-2.215-0.672c-0.713-0.303-1.359-0.719-1.938-1.246c-0.634-0.58-1.128-1.239-1.483-1.979
		c-0.355-0.738-0.62-1.496-0.792-2.273c-0.172-0.778-0.284-1.53-0.336-2.256c-0.053-0.725-0.079-1.352-0.079-1.879
		c0-0.58,0.026-1.252,0.079-2.018c0.053-0.765,0.171-1.536,0.356-2.314c0.184-0.777,0.456-1.543,0.811-2.295
		c0.356-0.751,0.838-1.404,1.444-1.957c0.579-0.527,1.226-0.943,1.938-1.246c0.712-0.304,1.449-0.527,2.215-0.674
		c0.765-0.145,1.516-0.23,2.255-0.256c0.738-0.027,1.425-0.04,2.058-0.04S102.16,71.911,102.898,71.938z M94.65,85.427
		c0.119,0.976,0.508,1.847,1.167,2.61c0.686,0.766,1.483,1.246,2.394,1.444s1.786,0.296,2.631,0.296c0.87,0,1.746-0.098,2.631-0.296
		c0.883-0.198,1.667-0.679,2.354-1.444c0.686-0.764,1.088-1.621,1.206-2.57c0.119-0.95,0.179-1.886,0.179-2.81
		c0-0.396,0-0.817,0-1.266c0-0.475-0.04-0.962-0.119-1.464c-0.079-0.5-0.211-0.995-0.396-1.483c-0.185-0.487-0.462-0.93-0.831-1.325
		c-0.343-0.369-0.719-0.666-1.127-0.891c-0.409-0.223-0.831-0.395-1.266-0.514c-0.436-0.118-0.878-0.191-1.326-0.217
		c-0.448-0.027-0.883-0.04-1.305-0.04c-0.369,0-0.785,0.013-1.246,0.04c-0.463,0.025-0.917,0.098-1.365,0.217
		c-0.449,0.119-0.891,0.291-1.325,0.514c-0.435,0.225-0.812,0.521-1.128,0.891s-0.566,0.805-0.751,1.305
		c-0.185,0.502-0.317,1.01-0.396,1.523c-0.079,0.515-0.125,1.009-0.139,1.483c-0.014,0.476-0.02,0.884-0.02,1.227
		C94.473,83.527,94.531,84.451,94.65,85.427z"/>
	<path fill="#5f5f5f" d="M115.398,70.117c0-0.58,0.053-1.193,0.159-1.839c0.104-0.646,0.435-1.232,0.989-1.76
		c0.5-0.475,1.047-0.778,1.641-0.91c0.594-0.131,1.154-0.198,1.682-0.198h13.134c0.475,0,0.976,0.02,1.503,0.06
		s1.055,0.138,1.582,0.297c0.527,0.158,1.035,0.409,1.523,0.751s0.93,0.817,1.325,1.424c0.659,0.95,1.055,1.952,1.187,3.007
		s0.197,2.083,0.197,3.085c0,1.004-0.059,2.038-0.178,3.105c-0.118,1.068-0.455,2.117-1.008,3.146
		c-0.186,0.343-0.41,0.68-0.673,1.009c-0.265,0.33-0.601,0.633-1.009,0.91c-0.409,0.276-0.904,0.501-1.483,0.672
		c-0.581,0.172-1.267,0.258-2.058,0.258h-3.56v0.197l10.522,9.771h-6.566l-9.1-8.98c-0.289-0.289-0.58-0.652-0.869-1.088
		c-0.291-0.436-0.436-0.851-0.436-1.246v-0.633c0-0.555,0.197-1.009,0.594-1.365c0.395-0.355,0.975-0.533,1.74-0.533h5.222
		c0.448,0,0.942-0.066,1.483-0.198c0.54-0.132,0.995-0.475,1.365-1.028c0.131-0.211,0.243-0.488,0.336-0.831
		c0.092-0.343,0.158-0.692,0.197-1.048c0.04-0.356,0.066-0.705,0.08-1.049c0.012-0.342,0.02-0.633,0.02-0.87
		c0-1.107-0.093-1.951-0.277-2.532c-0.185-0.579-0.422-1.015-0.712-1.305c-0.422-0.421-0.909-0.666-1.464-0.731
		c-0.554-0.066-1.042-0.099-1.463-0.099h-8.467c-0.29,0-0.54,0.02-0.751,0.06c-0.212,0.04-0.422,0.165-0.633,0.375
		c-0.29,0.237-0.455,0.481-0.495,0.732c-0.039,0.251-0.059,0.521-0.059,0.811v21.561h-5.223V70.117L115.398,70.117z"/>
	<path fill="#5f5f5f" d="M154.959,72.135c0.896,0,1.727,0.146,2.492,0.436c0.764,0.29,1.384,0.686,1.858,1.187
		c0.448,0.448,0.817,1.088,1.108,1.919c0.289,0.83,0.435,1.839,0.435,3.025V89.58c0,0.37-0.046,0.818-0.138,1.346
		c-0.094,0.527-0.324,0.976-0.693,1.345c-0.369,0.37-0.817,0.601-1.345,0.692c-0.528,0.093-1.042,0.139-1.542,0.139h-10.01
		c-0.58,0-1.206-0.04-1.879-0.119c-0.672-0.079-1.313-0.382-1.918-0.91c-0.422-0.369-0.759-0.797-1.01-1.285
		c-0.25-0.488-0.435-0.996-0.553-1.523c-0.119-0.527-0.191-1.041-0.219-1.543c-0.025-0.5-0.039-0.949-0.039-1.345
		c0-0.923,0.1-1.833,0.297-2.729s0.691-1.688,1.483-2.373c0.659-0.58,1.325-0.93,1.997-1.049c0.673-0.119,1.286-0.178,1.84-0.178
		h9.099v-1.464c0-0.316-0.033-0.646-0.099-0.989c-0.066-0.342-0.23-0.672-0.494-0.988c-0.316-0.396-0.68-0.646-1.088-0.752
		c-0.41-0.105-0.799-0.158-1.168-0.158h-10.324v-3.561H154.959z M148.51,83.607c-0.158,0-0.415,0.033-0.771,0.098
		c-0.355,0.066-0.666,0.271-0.93,0.613c-0.078,0.105-0.185,0.316-0.316,0.633s-0.197,0.857-0.197,1.623
		c0,0.316,0.033,0.712,0.1,1.187c0.064,0.475,0.243,0.856,0.533,1.147c0.158,0.158,0.376,0.303,0.652,0.435
		c0.277,0.132,0.561,0.198,0.852,0.198h6.447c0.132,0,0.297-0.007,0.495-0.02c0.198-0.014,0.376-0.086,0.534-0.219
		c0.158-0.131,0.25-0.27,0.277-0.415c0.025-0.145,0.039-0.296,0.039-0.454v-4.826H148.51z"/>
	<path fill="#5f5f5f" d="M164.018,69.089V65.41h4.628v3.679H164.018z M164.018,72.135h4.628v20.967h-4.628V72.135z"/>
	<path fill="#5f5f5f" d="M171.811,65.41h4.628v27.692h-4.628V65.41z"/>
</g>
<path fill="#5f5f5f" d="M12.259,0h36.061l35.888,38.488c0,0,3.814,4.161,0,8.148l-9.362,9.188H39.651l8.365-8.235
	c0,0,5.071-4.681-0.13-10.272L12.259,0z"/>
<path fill="#5f5f5f" d="M53.607,0h36.061l35.888,38.488c0,0,3.813,4.161,0,8.148l-9.362,9.188H81l8.365-8.235
	c0,0,5.071-4.681-0.13-10.272L53.607,0z"/>
<path fill="#5f5f5f" d="M94.436,0h36.061l35.888,38.488c0,0,3.813,4.161,0,8.148l-9.362,9.188h-35.193l8.364-8.235
	c0,0,5.071-4.681-0.13-10.272L94.436,0z"/>
<g>
	<path fill="#FFCE2A" d="M173.926,99.597H6.207c-1.418,0-2.567,1.149-2.567,2.567v22.934c0,1.417,1.149,2.566,2.567,2.566h167.719
		c1.42,0,2.568-1.149,2.568-2.566v-22.934C176.494,100.746,175.346,99.597,173.926,99.597z M22.525,116.588v4.393h-2.71v-4.393
		l-6.077-9.979h2.915l4.517,7.535l4.517-7.535h2.916L22.525,116.588z M41.762,120.98h-9.341c-0.315,0-0.609-0.017-0.883-0.051
		s-0.527-0.168-0.759-0.4c-0.247-0.232-0.397-0.503-0.452-0.811c-0.055-0.309-0.082-0.6-0.082-0.873v-10.183
		c0-0.288,0.044-0.565,0.133-0.831c0.089-0.268,0.208-0.49,0.359-0.668c0.232-0.26,0.51-0.417,0.832-0.472
		c0.321-0.055,0.619-0.083,0.893-0.083h9.218v2.156h-7.76c-0.123,0-0.25,0.011-0.38,0.031c-0.13,0.021-0.25,0.078-0.359,0.174
		c-0.109,0.11-0.174,0.227-0.195,0.35s-0.031,0.239-0.031,0.349v2.895h8.52v2.155h-8.52v3.367c0,0.26,0.068,0.445,0.206,0.555
		c0.082,0.082,0.202,0.133,0.359,0.154c0.157,0.021,0.346,0.031,0.565,0.031h7.678L41.762,120.98L41.762,120.98z M56.091,120.98
		h-9.608c-0.233,0-0.472-0.027-0.719-0.082c-0.246-0.054-0.451-0.15-0.616-0.287c-0.109-0.096-0.223-0.239-0.338-0.432
		c-0.117-0.191-0.175-0.443-0.175-0.759v-12.812h2.71v11.436c0,0.082,0.003,0.182,0.01,0.298s0.065,0.223,0.175,0.318
		c0.041,0.028,0.109,0.062,0.205,0.103s0.253,0.063,0.472,0.063h7.884L56.091,120.98L56.091,120.98z M69.395,120.98h-9.608
		c-0.233,0-0.472-0.027-0.718-0.082c-0.247-0.054-0.452-0.15-0.616-0.287c-0.109-0.096-0.222-0.239-0.338-0.432
		c-0.117-0.191-0.174-0.443-0.174-0.759v-12.812h2.709v11.436c0,0.082,0.003,0.182,0.011,0.298c0.006,0.116,0.065,0.223,0.174,0.318
		c0.041,0.028,0.109,0.062,0.206,0.103c0.096,0.041,0.253,0.063,0.472,0.063h7.883V120.98L69.395,120.98z M84.7,115.305
		c-0.034,0.527-0.106,1.051-0.215,1.57c-0.11,0.521-0.274,1.02-0.493,1.499c-0.219,0.479-0.513,0.896-0.883,1.252
		c-0.397,0.384-0.839,0.678-1.324,0.883c-0.486,0.205-0.986,0.356-1.499,0.452c-0.513,0.096-1.023,0.15-1.529,0.164
		s-0.965,0.021-1.375,0.021c-0.424,0-0.886-0.007-1.386-0.021c-0.5-0.014-1.006-0.068-1.52-0.164
		c-0.513-0.096-1.013-0.246-1.499-0.452c-0.486-0.205-0.927-0.499-1.324-0.883c-0.411-0.396-0.729-0.849-0.955-1.354
		c-0.226-0.506-0.39-1.023-0.493-1.551c-0.103-0.526-0.165-1.043-0.185-1.55c-0.021-0.506-0.031-0.965-0.031-1.376
		c0-0.492,0.013-1.002,0.041-1.529c0.027-0.526,0.095-1.047,0.205-1.561c0.109-0.513,0.273-1.006,0.493-1.478
		c0.219-0.472,0.527-0.894,0.924-1.263c0.397-0.383,0.838-0.678,1.324-0.883s0.982-0.355,1.488-0.451s1.009-0.15,1.509-0.165
		c0.5-0.013,0.968-0.021,1.406-0.021c0.424,0,0.886,0.008,1.386,0.021c0.5,0.015,1.006,0.069,1.519,0.165s1.013,0.246,1.499,0.451
		c0.485,0.205,0.927,0.5,1.324,0.883c0.369,0.355,0.664,0.773,0.883,1.252c0.219,0.479,0.386,0.979,0.503,1.499
		c0.116,0.521,0.188,1.047,0.215,1.581c0.027,0.533,0.041,1.033,0.041,1.498C84.751,114.275,84.734,114.777,84.7,115.305z
		 M104.297,119.133c-0.069,0.233-0.148,0.47-0.236,0.709c-0.09,0.239-0.22,0.455-0.391,0.646s-0.391,0.35-0.656,0.473
		c-0.268,0.123-0.613,0.184-1.037,0.184c-0.397,0-0.727-0.051-0.986-0.153s-0.475-0.239-0.646-0.411
		c-0.171-0.17-0.308-0.365-0.41-0.585c-0.104-0.219-0.188-0.452-0.257-0.698l-2.524-9.299c-0.069-0.26-0.165-0.391-0.288-0.391
		c-0.083,0-0.141,0.049-0.175,0.145s-0.064,0.178-0.092,0.246l-2.547,9.3c-0.055,0.205-0.126,0.414-0.215,0.626
		c-0.09,0.213-0.216,0.41-0.38,0.596c-0.164,0.185-0.38,0.336-0.646,0.451c-0.267,0.117-0.612,0.175-1.037,0.175
		c-0.575,0-1.054-0.137-1.437-0.411c-0.383-0.273-0.685-0.807-0.903-1.602l-3.449-12.522h2.75l2.854,11.065
		c0.027,0.068,0.059,0.158,0.092,0.268c0.035,0.109,0.106,0.164,0.216,0.164c0.069,0,0.13-0.041,0.185-0.123
		s0.096-0.158,0.123-0.227l2.67-9.834c0.041-0.137,0.096-0.291,0.164-0.462s0.174-0.331,0.318-0.482
		c0.144-0.15,0.335-0.277,0.574-0.38s0.551-0.154,0.935-0.154c0.355,0,0.649,0.049,0.883,0.145c0.232,0.096,0.424,0.215,0.575,0.359
		c0.15,0.144,0.267,0.301,0.349,0.472s0.144,0.339,0.185,0.503l2.669,9.834c0.027,0.068,0.068,0.145,0.123,0.227
		s0.116,0.123,0.185,0.123c0.041,0,0.096-0.027,0.164-0.082s0.123-0.172,0.164-0.35l2.854-11.065h2.752L104.297,119.133z
		 M126.674,120.98h-9.608c-0.233,0-0.472-0.027-0.719-0.082c-0.246-0.054-0.452-0.15-0.616-0.287
		c-0.109-0.096-0.223-0.239-0.338-0.432c-0.117-0.191-0.175-0.443-0.175-0.759v-12.812h2.71v11.436c0,0.082,0.003,0.182,0.01,0.298
		c0.008,0.116,0.065,0.223,0.175,0.318c0.041,0.028,0.109,0.062,0.206,0.103c0.096,0.041,0.252,0.063,0.471,0.063h7.885V120.98
		L126.674,120.98z M131.231,120.98h-2.71v-14.371h2.71V120.98z M148.477,119.113c0,0.725-0.209,1.245-0.626,1.561
		c-0.418,0.314-0.921,0.472-1.509,0.472c-0.438,0-0.855-0.075-1.253-0.226s-0.753-0.479-1.067-0.986l-6.057-9.566
		c-0.109-0.15-0.185-0.246-0.226-0.287c-0.041-0.042-0.075-0.063-0.103-0.063c-0.055,0-0.117,0.031-0.186,0.093
		s-0.102,0.168-0.102,0.317v10.553h-2.629v-12.584c0-0.616,0.195-1.096,0.586-1.438c0.39-0.342,0.927-0.514,1.611-0.514
		c0.643,0,1.136,0.11,1.479,0.329c0.342,0.219,0.608,0.485,0.801,0.801l6.097,9.628c0.055,0.068,0.099,0.145,0.134,0.227
		c0.034,0.082,0.1,0.123,0.195,0.123c0.109,0,0.174-0.045,0.195-0.134c0.02-0.089,0.03-0.161,0.03-0.216v-10.594h2.628V119.113z
		 M163.484,120.98h-9.342c-0.314,0-0.609-0.017-0.883-0.051s-0.527-0.168-0.76-0.4c-0.246-0.232-0.396-0.503-0.451-0.811
		c-0.055-0.309-0.082-0.6-0.082-0.873v-10.183c0-0.288,0.044-0.565,0.133-0.831c0.089-0.268,0.209-0.49,0.359-0.668
		c0.232-0.26,0.51-0.417,0.832-0.472c0.32-0.055,0.619-0.083,0.893-0.083h9.219v2.156h-7.761c-0.124,0-0.25,0.011-0.38,0.031
		c-0.131,0.021-0.25,0.078-0.359,0.174c-0.109,0.11-0.175,0.227-0.195,0.35s-0.03,0.239-0.03,0.349v2.895h8.52v2.155h-8.52v3.367
		c0,0.26,0.067,0.445,0.205,0.555c0.082,0.082,0.202,0.133,0.358,0.154c0.158,0.021,0.346,0.031,0.565,0.031h7.679V120.98
		L163.484,120.98z"/>
	<path fill="#FFCE2A" d="M81.692,111.065c-0.082-0.315-0.178-0.575-0.287-0.78c-0.11-0.205-0.219-0.377-0.329-0.514
		c-0.424-0.52-0.965-0.845-1.622-0.975c-0.657-0.13-1.355-0.195-2.094-0.195c-0.753,0-1.451,0.064-2.094,0.195
		c-0.644,0.13-1.177,0.455-1.601,0.975c-0.274,0.356-0.49,0.839-0.647,1.447c-0.157,0.609-0.236,1.469-0.236,2.577
		c0,0.589,0.024,1.099,0.072,1.529c0.048,0.431,0.113,0.808,0.195,1.13c0.083,0.321,0.175,0.588,0.277,0.801
		c0.103,0.212,0.215,0.393,0.339,0.543c0.205,0.274,0.444,0.49,0.718,0.646c0.274,0.158,0.568,0.277,0.883,0.359
		s0.65,0.134,1.006,0.154c0.355,0.021,0.718,0.031,1.088,0.031s0.729-0.01,1.078-0.031c0.349-0.021,0.685-0.071,1.006-0.154
		c0.322-0.082,0.62-0.201,0.893-0.359c0.274-0.156,0.52-0.372,0.739-0.646c0.123-0.15,0.236-0.335,0.339-0.554
		c0.103-0.22,0.195-0.485,0.277-0.801c0.083-0.315,0.147-0.69,0.195-1.13c0.048-0.438,0.072-0.943,0.072-1.519
		c0-0.616-0.024-1.146-0.072-1.591C81.839,111.76,81.774,111.38,81.692,111.065z"/>
</g>
<g>
	<path fill="#5f5f5f" d="M11.928,142.029h-0.942v-6.336l-2.132,6.336H7.967l-2.122-6.336v6.336H4.909v-7.455h1.488l2.011,6.215
		l2.033-6.215h1.488V142.029z"/>
	<path fill="#5f5f5f" d="M20.288,142.029H19.17l-0.865-2.265h-3.124l-0.821,2.265h-1.042l2.86-7.455h1.068L20.288,142.029z
		 M18.019,138.971l-1.317-3.448l-1.251,3.448H18.019z"/>
	<path fill="#5f5f5f" d="M24.489,142.162c-0.525,0-0.984-0.063-1.377-0.188c-0.393-0.125-0.721-0.3-0.983-0.523
		c-0.263-0.225-0.462-0.492-0.598-0.803c-0.136-0.31-0.209-0.65-0.22-1.021h0.948c0.025,0.283,0.101,0.528,0.226,0.736
		c0.125,0.207,0.285,0.379,0.479,0.514c0.195,0.137,0.418,0.236,0.669,0.301c0.252,0.064,0.521,0.097,0.808,0.097
		c0.279,0,0.532-0.029,0.76-0.089c0.228-0.059,0.422-0.143,0.584-0.253s0.287-0.243,0.375-0.399s0.132-0.334,0.132-0.531
		c0-0.206-0.041-0.38-0.121-0.521c-0.081-0.141-0.212-0.265-0.394-0.371c-0.182-0.106-0.421-0.202-0.719-0.287
		c-0.297-0.084-0.661-0.17-1.091-0.259c-0.419-0.095-0.78-0.204-1.083-0.325c-0.303-0.121-0.552-0.264-0.747-0.427
		c-0.194-0.163-0.339-0.352-0.432-0.564c-0.094-0.214-0.141-0.458-0.141-0.733c0-0.301,0.064-0.578,0.193-0.832
		c0.128-0.253,0.309-0.471,0.542-0.655c0.233-0.184,0.512-0.327,0.837-0.429c0.325-0.104,0.686-0.154,1.083-0.154
		c0.419,0,0.8,0.051,1.144,0.154c0.343,0.102,0.64,0.25,0.89,0.443c0.25,0.192,0.446,0.428,0.589,0.705s0.22,0.59,0.231,0.939
		h-0.959c-0.099-0.9-0.716-1.351-1.851-1.351c-0.555,0-0.981,0.103-1.281,0.309s-0.449,0.483-0.449,0.832
		c0,0.158,0.028,0.293,0.083,0.405c0.055,0.111,0.149,0.21,0.281,0.295c0.132,0.084,0.309,0.16,0.529,0.229
		c0.221,0.068,0.494,0.137,0.821,0.206c0.224,0.048,0.454,0.099,0.689,0.151c0.235,0.054,0.464,0.119,0.686,0.196
		c0.222,0.077,0.432,0.17,0.63,0.278c0.199,0.107,0.372,0.239,0.521,0.394s0.266,0.337,0.353,0.548
		c0.086,0.212,0.129,0.459,0.129,0.742c0,0.326-0.069,0.627-0.207,0.9s-0.33,0.51-0.576,0.708s-0.538,0.354-0.876,0.466
		C25.258,142.105,24.889,142.162,24.489,142.162z"/>
	<path fill="#5f5f5f" d="M32.006,142.162c-0.525,0-0.984-0.063-1.377-0.188c-0.393-0.125-0.721-0.3-0.983-0.523
		c-0.263-0.225-0.462-0.492-0.598-0.803c-0.136-0.31-0.209-0.65-0.22-1.021h0.947c0.026,0.283,0.101,0.528,0.226,0.736
		c0.125,0.207,0.285,0.379,0.479,0.514c0.194,0.137,0.417,0.236,0.669,0.301c0.251,0.064,0.521,0.097,0.807,0.097
		c0.279,0,0.533-0.029,0.76-0.089c0.228-0.059,0.422-0.143,0.584-0.253s0.287-0.243,0.375-0.399
		c0.088-0.156,0.132-0.334,0.132-0.531c0-0.206-0.04-0.38-0.121-0.521c-0.081-0.141-0.212-0.265-0.394-0.371
		c-0.182-0.106-0.421-0.202-0.719-0.287c-0.297-0.084-0.661-0.17-1.091-0.259c-0.418-0.095-0.78-0.204-1.083-0.325
		c-0.303-0.121-0.552-0.264-0.747-0.427s-0.339-0.352-0.433-0.564c-0.094-0.214-0.141-0.458-0.141-0.733
		c0-0.301,0.064-0.578,0.193-0.832c0.128-0.253,0.31-0.471,0.542-0.655c0.233-0.184,0.513-0.327,0.838-0.429
		c0.325-0.104,0.686-0.154,1.083-0.154c0.418,0,0.8,0.051,1.143,0.154c0.343,0.102,0.64,0.25,0.89,0.443
		c0.25,0.192,0.446,0.428,0.589,0.705c0.144,0.277,0.221,0.59,0.231,0.939h-0.958c-0.099-0.9-0.716-1.351-1.852-1.351
		c-0.554,0-0.981,0.103-1.281,0.309s-0.449,0.483-0.449,0.832c0,0.158,0.028,0.293,0.083,0.405c0.055,0.111,0.148,0.21,0.281,0.295
		c0.132,0.084,0.309,0.16,0.529,0.229c0.221,0.068,0.494,0.137,0.821,0.206c0.224,0.048,0.454,0.099,0.688,0.151
		c0.235,0.054,0.464,0.119,0.686,0.196s0.433,0.17,0.631,0.278c0.198,0.107,0.372,0.239,0.521,0.394s0.267,0.337,0.353,0.548
		c0.086,0.212,0.129,0.459,0.129,0.742c0,0.326-0.069,0.627-0.207,0.9s-0.33,0.51-0.576,0.708s-0.538,0.354-0.876,0.466
		C32.775,142.105,32.406,142.162,32.006,142.162z"/>
	<path fill="#5f5f5f" d="M47.019,142.029h-1.074l-0.7-2c-0.063-0.173-0.146-0.332-0.251-0.477c-0.104-0.145-0.228-0.27-0.369-0.375
		c-0.142-0.104-0.297-0.186-0.468-0.245c-0.171-0.059-0.352-0.088-0.542-0.088h-1.829v3.185h-0.986v-7.455h3.3
		c0.202,0,0.394,0.006,0.576,0.014c0.182,0.01,0.354,0.031,0.518,0.064s0.318,0.081,0.463,0.146
		c0.146,0.063,0.284,0.151,0.416,0.262c0.224,0.198,0.395,0.439,0.513,0.725c0.117,0.284,0.176,0.575,0.176,0.873
		c0,0.261-0.039,0.501-0.116,0.719c-0.077,0.219-0.188,0.413-0.333,0.581c-0.145,0.17-0.321,0.312-0.529,0.428
		c-0.208,0.115-0.44,0.199-0.697,0.25v0.018c0.521,0.164,0.92,0.615,1.195,1.35L47.019,142.029z M41.785,137.952h2.214
		c0.305,0,0.567-0.022,0.788-0.069c0.221-0.046,0.401-0.119,0.542-0.221c0.142-0.101,0.245-0.234,0.312-0.398
		c0.066-0.166,0.099-0.367,0.099-0.606c0-0.43-0.132-0.747-0.396-0.95c-0.264-0.204-0.665-0.307-1.201-0.307h-2.358V137.952
		L41.785,137.952z"/>
	<path fill="#5f5f5f" d="M55.015,142.029h-1.118l-0.865-2.265h-3.124l-0.821,2.265h-1.042l2.859-7.455h1.069L55.015,142.029z
		 M52.745,138.971l-1.317-3.448l-1.25,3.448H52.745z"/>
	<path fill="#5f5f5f" d="M56.4,134.574h2.793c0.375,0,0.734,0.033,1.08,0.097c0.346,0.063,0.65,0.179,0.915,0.342
		c0.264,0.163,0.476,0.386,0.633,0.667c0.158,0.28,0.237,0.638,0.237,1.07c0,0.754-0.238,1.324-0.714,1.715
		c-0.476,0.389-1.17,0.584-2.085,0.584h-1.874v2.98H56.4V134.574L56.4,134.574z M57.386,138.161h1.896
		c0.316,0,0.585-0.029,0.807-0.088s0.404-0.146,0.545-0.265c0.141-0.117,0.244-0.262,0.309-0.436c0.064-0.172,0.097-0.372,0.097-0.6
		c0-0.275-0.048-0.499-0.144-0.67s-0.225-0.304-0.388-0.399c-0.164-0.096-0.354-0.159-0.57-0.192
		c-0.217-0.033-0.446-0.051-0.689-0.051h-1.862V138.161z"/>
	<path fill="#5f5f5f" d="M65.036,142.029H64.05v-7.455h0.986V142.029z"/>
	<path fill="#5f5f5f" d="M73.545,138.261c0,2.513-1.267,3.769-3.802,3.769H67.38v-7.455h2.363
		C72.278,134.574,73.545,135.803,73.545,138.261z M72.526,138.261c0-0.434-0.043-0.824-0.13-1.171
		c-0.086-0.348-0.235-0.641-0.446-0.882c-0.211-0.24-0.497-0.425-0.856-0.554c-0.36-0.129-0.814-0.193-1.361-0.193h-1.367v5.682
		h1.367c0.543,0,0.995-0.066,1.355-0.196c0.36-0.13,0.646-0.319,0.859-0.567s0.362-0.551,0.449-0.906S72.526,138.713,72.526,138.261
		z"/>
	<path fill="#5f5f5f" d="M84.86,135.461h-2.468v6.568h-0.986v-6.568h-2.452v-0.887h5.906V135.461z"/>
	<path fill="#5f5f5f" d="M92.703,142.029h-1.074l-0.7-2c-0.063-0.173-0.146-0.332-0.251-0.477c-0.104-0.145-0.228-0.27-0.369-0.375
		c-0.142-0.104-0.297-0.186-0.468-0.245c-0.171-0.059-0.352-0.088-0.542-0.088h-1.83v3.185h-0.986v-7.455h3.3
		c0.202,0,0.394,0.006,0.576,0.014c0.183,0.01,0.354,0.031,0.519,0.064c0.162,0.033,0.317,0.081,0.463,0.146
		c0.145,0.063,0.283,0.151,0.416,0.262c0.224,0.198,0.395,0.439,0.512,0.725c0.117,0.284,0.177,0.575,0.177,0.873
		c0,0.261-0.038,0.501-0.116,0.719c-0.076,0.219-0.188,0.413-0.333,0.581c-0.146,0.17-0.321,0.312-0.528,0.428
		c-0.208,0.115-0.44,0.199-0.697,0.25v0.018c0.521,0.164,0.92,0.615,1.195,1.35L92.703,142.029z M87.469,137.952h2.215
		c0.305,0,0.567-0.022,0.788-0.069c0.22-0.045,0.401-0.119,0.542-0.221c0.143-0.101,0.246-0.234,0.313-0.398
		c0.065-0.166,0.099-0.367,0.099-0.606c0-0.43-0.132-0.747-0.396-0.95c-0.265-0.204-0.665-0.307-1.201-0.307h-2.358L87.469,137.952
		L87.469,137.952z"/>
	<path fill="#5f5f5f" d="M100.699,142.029h-1.118l-0.864-2.265h-3.125l-0.82,2.265H93.73l2.859-7.455h1.068L100.699,142.029z
		 M98.43,138.971l-1.316-3.448l-1.251,3.448H98.43z"/>
	<path fill="#5f5f5f" d="M107.947,142.029h-1.014l-3.912-5.879v5.879h-0.938v-7.455h1.02l3.896,5.891v-5.891h0.948V142.029z"/>
	<path fill="#5f5f5f" d="M112.984,142.162c-0.525,0-0.984-0.063-1.377-0.188c-0.393-0.125-0.721-0.3-0.983-0.523
		c-0.263-0.225-0.462-0.492-0.598-0.803c-0.136-0.31-0.21-0.65-0.221-1.021h0.948c0.025,0.283,0.101,0.528,0.225,0.736
		c0.125,0.207,0.285,0.379,0.48,0.514c0.194,0.137,0.418,0.236,0.669,0.301c0.252,0.064,0.521,0.097,0.808,0.097
		c0.279,0,0.532-0.029,0.76-0.089c0.229-0.059,0.423-0.143,0.584-0.253c0.162-0.11,0.287-0.243,0.375-0.399s0.133-0.334,0.133-0.531
		c0-0.206-0.041-0.38-0.121-0.521c-0.082-0.141-0.213-0.265-0.395-0.371s-0.422-0.202-0.719-0.287
		c-0.298-0.084-0.662-0.17-1.092-0.259c-0.418-0.095-0.779-0.204-1.082-0.325s-0.553-0.264-0.746-0.427
		c-0.195-0.163-0.34-0.352-0.433-0.564c-0.095-0.214-0.141-0.458-0.141-0.733c0-0.301,0.063-0.578,0.192-0.832
		c0.129-0.253,0.31-0.471,0.543-0.655c0.233-0.184,0.513-0.327,0.838-0.429c0.324-0.104,0.686-0.154,1.082-0.154
		c0.419,0,0.801,0.051,1.144,0.154c0.343,0.102,0.64,0.25,0.89,0.443c0.25,0.192,0.446,0.428,0.59,0.705
		c0.143,0.277,0.221,0.59,0.23,0.939h-0.958c-0.099-0.9-0.716-1.351-1.851-1.351c-0.555,0-0.982,0.103-1.281,0.309
		c-0.3,0.206-0.449,0.483-0.449,0.832c0,0.158,0.027,0.293,0.082,0.405c0.056,0.111,0.149,0.21,0.281,0.295
		c0.133,0.084,0.309,0.16,0.529,0.229s0.494,0.137,0.82,0.206c0.225,0.048,0.454,0.099,0.689,0.151
		c0.234,0.054,0.463,0.119,0.686,0.196s0.433,0.17,0.631,0.278c0.199,0.107,0.372,0.239,0.521,0.394
		c0.148,0.154,0.266,0.337,0.352,0.548c0.087,0.212,0.13,0.459,0.13,0.742c0,0.326-0.069,0.627-0.206,0.9
		c-0.139,0.273-0.33,0.51-0.576,0.708s-0.538,0.354-0.876,0.466C113.754,142.105,113.385,142.162,112.984,142.162z"/>
	<path fill="#5f5f5f" d="M118.805,142.029h-0.986v-7.455h0.986V142.029z"/>
	<path fill="#5f5f5f" d="M126.455,135.461h-2.469v6.568H123v-6.568h-2.451v-0.887h5.906V135.461z"/>
	<path fill="#5f5f5f" d="M135.203,138.938h-3.107v-0.882h3.107V138.938z"/>
	<path fill="#5f5f5f" d="M146.066,142.029h-4.617v-7.455h0.986v6.568h3.631V142.029L146.066,142.029z"/>
	<path fill="#5f5f5f" d="M148.928,142.029h-0.986v-7.455h0.986V142.029z"/>
	<path fill="#5f5f5f" d="M157.135,142.029h-1.014l-3.912-5.879v5.879h-0.938v-7.455h1.02l3.896,5.891v-5.891h0.948V142.029z"/>
	<path fill="#5f5f5f" d="M164.922,142.029h-5.564v-7.455h5.398v0.888h-4.413v2.265h4.122v0.887h-4.122v2.529h4.579V142.029z"/>
	<path fill="#5f5f5f" d="M173.047,141.324c0.426,0,0.788-0.147,1.086-0.441c0.268-0.264,0.402-0.541,0.402-0.832
		c0-0.44-0.136-0.785-0.405-1.035c-0.271-0.25-0.646-0.375-1.127-0.375h-0.573v-0.931h0.546c0.331,0,0.606-0.107,0.827-0.322
		c0.22-0.215,0.33-0.485,0.33-0.813c0-0.338-0.102-0.609-0.303-0.817c-0.203-0.208-0.462-0.312-0.777-0.312
		c-0.199,0-0.439,0.044-0.722,0.132c-0.261,0.081-0.463,0.165-0.606,0.254v-0.921c0.448-0.249,0.898-0.374,1.35-0.374
		c0.551,0,1.02,0.188,1.405,0.562c0.4,0.387,0.601,0.863,0.601,1.434c0,0.668-0.252,1.199-0.754,1.592
		c0.785,0.371,1.178,1.026,1.178,1.967c0,0.507-0.207,0.977-0.621,1.41c-0.482,0.5-1.094,0.75-1.836,0.75
		c-0.712,0-1.356-0.199-1.934-0.596v-0.959C171.774,141.115,172.419,141.324,173.047,141.324z"/>
</g>
</svg>
